<svg xmlns="http://www.w3.org/2000/svg" viewBox="0 0 1000 1000"><path fill="#f6f6f6" d="M0 0h1000v1000H0z"/><path fill="#bbb" d="M174.54 659.59a250.96 250.96 0 0 1-19-5.57c-6-2.03-23.96-7.17-39.9-11.42-37.14-9.91-86.67-23.83-95.49-26.83-13.44-4.58-18.64-8.37-19.9-14.48-.72-3.56-.7.03-.45-156.1L0 321.92l11.37.54c19.93.95 38.2 4.27 48.36 8.78 2.47 1.1 7.91 4.18 12.09 6.84 20.23 12.87 30.05 15.6 61.6 17.11 9.32.45 19.47 1.03 22.58 1.28 4.43.36 81.6 14.14 101.78 18.17l4.23.85v6.83c0 30.37-18.35 121.02-33.85 167.2-7.3 21.78-7.82 23.98-15 64.08-2.93 16.4-6.02 32.03-6.85 34.73-1.95 6.32-4.49 10.06-8 11.83-3.98 2-13.71 1.76-23.77-.57zm358.54-10.16c-7.1-1.25-16.15-5.21-29.65-13-16.9-9.72-21.99-11.65-36.12-13.66-13.42-1.9-17.35-3.49-24.54-9.87-12.95-11.5-16.66-12.78-34.03-11.77-6.1.35-7.57-.27-17.33-7.33-10.2-7.37-13.14-8.28-27.01-8.35-6.43-.03-15.52.1-20.2.3-8.41.37-8.55.35-14.5-2.5-6.77-3.24-21.5-12.96-35.66-23.52-11.43-8.52-18.45-12.39-29.37-16.16-10.36-3.58-12.41-4.66-15.16-7.92-2.13-2.53-2.2-2.89-1.78-9.5.28-4.53 1.97-12.9 4.96-24.6 9.58-37.5 18.8-89.23 20.3-113.96.3-4.94.77-8.99 1.04-8.98.26 0 12.09 1.09 26.28 2.4 14.19 1.33 26.06 2.41 26.39 2.42.32 0-.9 2.93-2.73 6.5-4.66 9.13-4.86 12.24-1.23 19.57a43.24 43.24 0 0 0 15.16 16.87c10.51 6.61 20.6 8.99 38.19 8.98 14.28 0 18.9-.96 32.58-6.7a227.01 227.01 0 0 1 15.8-5.94c15.48-4.86 38.33-5.05 56.43-.47 12.16 3.08 20.13 8.7 33.81 23.8a410.84 410.84 0 0 0 20.4 20.44c6.55 6.08 18.74 18.73 27.08 28.1 13.44 15.12 19.11 20.61 49.97 48.4 22.53 20.27 35.45 32.47 36.63 34.57 7.26 12.93.23 28.68-14.13 31.67-6 1.24-11.1-.18-23.69-6.6-15.76-8.03-26.8-15.75-38.5-26.9-12.34-11.76-18.36-20.43-22.36-32.2-2.43-7.15-3.88-9.32-6.23-9.32-4.31 0-6.09 5.07-4.13 11.83 5.68 19.67 24.37 39.53 57.78 61.41l9.41 6.17.06 4.22.06 4.22-5.44 2.5c-17.26 7.94-22.24 9.06-30.65 6.9-10.12-2.59-21.2-9.34-39.55-24.12-11.24-9.04-15.69-11.84-18.87-11.85-4.56-.02-3.52 5.86 1.94 10.96 1.47 1.39 11.48 9.1 22.23 17.15l19.55 14.63v8.63l-4.63 1.28c-6.22 1.7-13.39 2.21-18.56 1.3z"/><g fill="#aaa"><path d="M308.06 605.81c-6.71-3.32-11.16-13.46-10.31-23.53.26-3.08.76-5.88 1.11-6.21.35-.34 7.25 4.21 15.33 10.11l14.7 10.72-3.43 3.68c-3.4 3.65-9.17 6.93-12.25 6.96-.89 0-3.2-.77-5.15-1.73zm42.81 29.02c-7.22-3.5-12.28-12.54-12.25-21.86.03-8.86 3.52-13.78 11.28-15.91 5.65-1.56 20.49-1.36 25.87.35 11.25 3.56 19.43 14.23 17.33 22.62-2.74 10.91-30.31 20.58-42.23 14.8zm45.17 22.62c-6.06-3-8.9-9.3-6.38-14.16.69-1.33 3.6-5.19 6.48-8.58a80.1 80.1 0 0 0 8.24-11.87c1.66-3.15 4.22-6.65 5.71-7.78 2.49-1.9 3.2-2.03 8.94-1.69 9.6.58 17.19 5.12 20.42 12.24 3.04 6.7 1.42 11.83-5.94 18.79-13 12.3-28.26 17.61-37.47 13.05zm37.29 19.93c-10.54-1.72-10.08-1.37-10.07-7.6l.01-5.38 6.22-4.04c10.83-7.02 18.89-15.46 24.45-25.62l2.1-3.85 3.94 2.64a24.96 24.96 0 0 1 6.38 6.62c2.19 3.55 2.44 4.64 2.44 10.48 0 5.37-.38 7.31-2.16 11.12-2.65 5.65-8.55 12.1-13.03 14.27-4.43 2.13-12.33 2.66-20.28 1.36zm54.92-10.98a10.76 10.76 0 0 1-6.86-6.76c-.96-3.17-1.93-21.68-1.1-21.17.33.2 8.14 3.84 17.35 8.08a970.54 970.54 0 0 1 18.05 8.44c1.06.6.42 1.32-3.44 3.94-8.46 5.7-19.03 9-24 7.47zm253.35-83.97c-6.65-6.47-7.25-7.35-13.16-19.45-4.88-9.98-6.69-12.93-8.52-13.88-5.26-2.71-11.58-.97-24.44 6.75-20.08 12.07-29.4 14.26-40.43 9.54-9.49-4.07-64.96-54.51-86.5-78.68-7.76-8.69-17.4-18.82-21.45-22.5-4.04-3.69-15.33-14.8-25.09-24.71-23.29-23.65-29.86-27.9-46.76-30.25-7.38-1.03-35.7-1.03-42.02 0-2.72.43-12.64 3.7-22.05 7.23-9.4 3.54-19.49 6.86-22.4 7.36-7.97 1.4-26.53.46-34.05-1.7-7.6-2.18-14.7-5.93-17.7-9.36-3.3-3.74-8.44-13.22-7.6-13.96.39-.35 5.24-2.16 10.78-4.04 16.33-5.51 25.55-9.39 36.69-15.4a995.77 995.77 0 0 1 21.94-11.4l11.47-5.76 30.86-3.1 30.86-3.11 10.88-3.68c18.24-6.16 24.02-7.6 30.63-7.58 13.52.03 21.1 2.84 68.94 25.58 38.88 18.48 58.83 24.4 82.3 24.4 16.15 0 25.52-2.19 33.97-7.91 8.02-5.44 11.37-6.83 15.34-6.39 5.08.58 8.86 3.94 12.49 11.13 4.42 8.78 6.57 17.32 12.28 48.71 11.54 63.42 13.05 82.02 10.62 130.5l-.93 18.44z"/><path d="M784.45 616.87c-6.44-.94-14.27-4.1-24.13-9.73-2.7-1.54-2.99-1.9-2.7-3.24a113.2 113.2 0 0 0 2.02-18.04c0-2.82.53-11.8 1.18-19.95.93-11.64 1.1-17.33.83-26.5-.9-29.96-2.78-46.46-10.28-90.19-6.97-40.6-9.57-50.13-19.15-69.95-2.48-5.14-4.39-9.48-4.23-9.64.8-.8 76.3-11.35 135.69-18.95 58.33-7.46 136.1-17.08 136.32-16.86.3.31 1.46 246.14 1.15 246.44-1.06 1.07-86.35 14.1-116.66 17.83-17.72 2.18-34 4.4-36.2 4.93-2.2.53-10.15 3-17.68 5.48-24.1 7.95-35.2 9.96-46.16 8.37z"/></g></svg>
