<?xml version="1.0" standalone="no"?>
<!DOCTYPE svg PUBLIC "-//W3C//DTD SVG 20010904//EN"
 "http://www.w3.org/TR/2001/REC-SVG-20010904/DTD/svg10.dtd">
<svg version="1.0" xmlns="http://www.w3.org/2000/svg"
 width="700.000000pt" height="700.000000pt" viewBox="0 0 700.000000 700.000000"
 preserveAspectRatio="xMidYMid meet">
<metadata>
Created by potrace 1.14, written by Peter Selinger 2001-2017
</metadata>
<g transform="translate(0.000000,700.000000) scale(0.100000,-0.100000)"
fill="#000000" stroke="none">
<path d="M4708 6995 c-2 -2 -47 -6 -101 -10 -54 -3 -108 -8 -120 -10 -12 -2
-62 -6 -112 -10 -49 -4 -103 -8 -120 -10 -29 -4 -120 -12 -216 -20 -117 -9
-196 -16 -219 -20 -14 -2 -65 -6 -115 -10 -49 -3 -106 -8 -125 -10 -52 -6
-147 -14 -220 -20 -36 -3 -92 -8 -125 -11 -33 -3 -80 -7 -105 -9 -25 -2 -74
-6 -110 -9 -163 -15 -263 -24 -350 -31 -30 -3 -80 -7 -110 -10 -30 -3 -82 -8
-115 -10 -33 -3 -80 -7 -105 -10 -25 -3 -76 -7 -115 -10 -38 -3 -90 -7 -115
-10 -25 -3 -76 -7 -115 -10 -38 -3 -90 -8 -115 -10 -50 -5 -110 -11 -220 -20
-41 -4 -91 -8 -110 -10 -19 -2 -69 -6 -110 -10 -41 -3 -95 -8 -120 -10 -25 -3
-74 -7 -110 -10 -36 -3 -85 -7 -110 -10 -25 -2 -79 -6 -120 -10 -90 -7 -172
-15 -220 -20 -19 -3 -69 -7 -110 -10 -41 -3 -95 -7 -120 -10 -25 -2 -76 -7
-115 -10 -38 -3 -88 -8 -110 -10 -22 -2 -76 -7 -120 -11 -44 -3 -91 -7 -105
-9 -14 -2 -38 -4 -53 -4 -28 -1 -28 -2 -23 -48 3 -27 8 -82 11 -123 3 -41 8
-91 10 -110 2 -19 7 -71 10 -115 8 -96 12 -137 19 -221 3 -35 9 -94 12 -131 3
-38 7 -84 9 -103 2 -19 6 -69 10 -110 3 -41 8 -93 10 -115 2 -22 7 -71 10
-110 3 -38 8 -92 10 -120 3 -27 7 -77 10 -110 2 -33 7 -82 10 -110 2 -27 7
-81 10 -120 3 -38 8 -88 10 -110 3 -22 7 -71 11 -110 3 -38 7 -88 9 -110 2
-22 6 -76 10 -120 4 -44 8 -96 10 -115 2 -19 6 -71 10 -115 4 -44 8 -96 10
-115 2 -19 6 -66 10 -105 10 -118 15 -178 20 -220 3 -22 7 -74 10 -115 5 -70
8 -106 20 -235 6 -67 21 -236 30 -335 6 -72 14 -162 21 -230 2 -30 6 -75 8
-100 12 -139 18 -209 22 -243 2 -20 6 -68 9 -105 3 -37 8 -87 10 -112 2 -25 7
-81 11 -125 4 -44 8 -93 10 -110 1 -16 6 -68 9 -115 4 -47 9 -96 10 -110 2
-14 4 -35 4 -48 1 -22 3 -23 69 -17 107 10 152 14 227 20 39 3 88 8 110 10 52
5 143 13 225 20 l65 6 0 -371 c0 -237 4 -374 10 -379 6 -4 176 -7 378 -7 l368
1 -5 -50 c-3 -27 -8 -81 -11 -120 -3 -38 -8 -90 -10 -115 -2 -25 -7 -74 -10
-110 -3 -36 -8 -81 -10 -100 -2 -19 -7 -72 -11 -117 -5 -76 -4 -83 13 -84 10
0 25 -2 34 -4 9 -1 63 -6 120 -10 57 -4 106 -8 109 -10 3 -2 52 -6 110 -10 58
-4 112 -8 120 -10 8 -1 56 -6 105 -9 50 -4 101 -9 115 -11 14 -2 66 -6 115
-10 50 -3 101 -8 115 -10 14 -2 61 -7 105 -10 44 -3 98 -8 120 -10 22 -2 72
-7 110 -10 79 -6 154 -13 235 -20 136 -13 191 -18 390 -35 69 -6 145 -12 170
-15 25 -2 79 -7 120 -10 41 -3 91 -7 110 -10 19 -2 67 -7 105 -10 39 -3 90 -7
115 -10 25 -2 77 -7 115 -10 85 -7 166 -14 220 -20 22 -2 76 -7 120 -10 44 -3
96 -8 115 -10 42 -5 129 -12 225 -20 39 -3 90 -8 115 -10 48 -5 243 -22 350
-30 36 -3 81 -8 100 -10 19 -2 71 -6 115 -10 44 -3 91 -8 105 -10 14 -2 66 -7
115 -10 50 -3 101 -8 115 -10 14 -2 66 -6 115 -10 50 -3 97 -8 105 -10 8 -2
56 -6 106 -10 l92 -6 6 48 c6 58 12 117 26 283 6 69 12 145 15 170 2 25 7 77
10 115 3 39 7 94 10 123 11 114 15 159 20 217 3 33 7 83 10 110 3 28 7 82 10
120 3 39 7 88 10 110 2 22 7 76 10 120 3 44 8 91 10 105 2 14 7 63 10 110 3
47 8 96 10 110 2 14 7 68 10 120 4 52 8 106 10 120 2 14 6 59 10 100 3 41 8
95 10 120 2 25 9 101 15 170 6 69 13 145 15 170 2 25 9 101 15 170 11 130 13
155 29 330 6 58 13 139 16 180 3 41 8 95 10 120 11 111 15 150 20 220 3 41 7
91 10 110 2 19 7 69 10 110 3 41 8 95 10 120 2 25 7 74 10 110 7 79 14 169 20
230 2 25 7 74 10 110 3 36 8 90 10 120 3 30 7 78 9 105 3 28 8 82 11 121 l7
72 -49 6 c-26 3 -76 8 -110 11 -158 13 -190 16 -223 20 -19 2 -73 7 -120 10
-47 3 -96 8 -110 10 -14 2 -68 7 -120 11 -52 3 -102 7 -110 9 -8 1 -59 6 -112
10 -53 3 -105 8 -115 10 -10 2 -21 4 -24 4 -3 1 -6 231 -6 511 0 281 -3 513
-6 517 -4 3 -237 7 -519 7 -485 1 -511 2 -514 19 -1 10 -5 55 -9 100 -3 45 -8
102 -11 127 -2 25 -6 65 -9 90 -2 25 -7 79 -10 120 -3 41 -8 93 -10 115 -2 22
-7 74 -10 115 -3 41 -7 91 -10 110 -2 19 -7 71 -10 115 -3 44 -8 89 -10 100
-2 11 -4 34 -4 52 -1 29 -4 32 -31 31 -16 -1 -31 -2 -32 -3z m-174 -330 c3
-22 8 -76 12 -120 3 -44 7 -93 9 -110 1 -16 6 -70 9 -120 4 -49 9 -100 11
-113 6 -35 19 -202 19 -252 l1 -45 -1720 -2 c-946 -1 -1729 -2 -1740 -2 -20
-1 -20 -8 -20 -1882 0 -1034 -2 -1882 -5 -1884 -3 -1 -43 -6 -90 -9 -47 -4
-101 -9 -120 -11 -19 -2 -73 -7 -120 -10 -47 -3 -93 -9 -102 -11 -13 -4 -18 1
-19 18 0 13 -2 32 -3 43 -2 11 -6 58 -10 104 -4 47 -9 98 -11 115 -2 17 -7 65
-10 106 -3 41 -7 98 -10 125 -13 137 -16 175 -20 235 -3 36 -7 83 -9 105 -3
22 -8 76 -12 120 -4 44 -8 91 -9 105 -3 26 -8 85 -30 340 -3 30 -7 80 -10 110
-7 79 -24 274 -30 350 -3 36 -7 83 -10 105 -2 22 -7 69 -10 105 -3 36 -8 90
-10 120 -10 113 -14 157 -20 230 -4 41 -8 91 -10 110 -2 19 -6 71 -10 115 -3
44 -8 91 -10 105 -2 14 -6 63 -10 110 -4 47 -8 99 -10 115 -1 17 -5 66 -9 110
-4 44 -9 100 -11 125 -2 25 -7 77 -10 115 -3 39 -8 86 -10 105 -2 19 -7 71
-10 115 -3 44 -8 91 -10 105 -2 14 -6 66 -10 115 -3 50 -8 108 -10 130 -6 46
-12 115 -21 235 -3 47 -8 88 -11 93 -2 4 8 7 24 8 15 0 35 2 45 4 9 2 56 6
105 10 48 4 102 9 118 10 72 6 184 16 225 20 25 3 77 7 115 10 39 3 88 7 110
10 22 2 72 7 110 10 70 6 141 12 225 20 25 2 79 7 120 10 41 4 86 8 100 10 14
2 70 7 125 11 55 3 108 8 118 10 9 1 54 6 100 9 45 4 98 8 118 10 20 2 70 7
110 10 41 3 92 8 114 10 22 2 74 7 115 10 84 7 148 12 230 20 55 5 80 8 215
20 39 3 90 8 115 10 25 3 79 7 120 11 41 3 91 7 110 9 19 2 71 7 115 10 44 3
96 8 115 10 54 6 188 18 340 30 36 3 83 8 105 10 22 2 74 7 115 10 41 3 95 8
120 10 25 3 77 7 115 10 39 3 88 7 110 10 22 2 76 7 120 11 44 3 82 8 84 10
10 9 21 -14 25 -51z m97 -1077 c0 -29 2 -61 4 -71 2 -9 6 -50 9 -90 12 -140
17 -192 21 -232 2 -22 7 -80 10 -129 l7 -89 -94 7 c-51 4 -106 9 -123 10 -16
2 -68 7 -115 10 -47 4 -96 9 -110 11 -14 2 -68 6 -120 10 -52 3 -106 8 -120
10 -14 2 -63 7 -110 10 -47 4 -98 8 -115 10 -16 2 -64 6 -105 10 -41 3 -95 8
-120 10 -49 5 -236 22 -340 30 -36 3 -83 8 -105 10 -22 2 -69 6 -105 9 -36 3
-117 10 -180 16 -63 6 -142 13 -175 15 -33 3 -85 8 -115 10 -30 3 -77 8 -105
10 -27 2 -83 7 -122 11 -58 5 -73 4 -74 -7 -1 -8 -2 -25 -4 -39 -1 -14 -5 -68
-9 -120 -4 -52 -9 -102 -11 -110 -2 -8 -6 -55 -10 -105 -3 -49 -8 -106 -10
-125 -2 -19 -6 -64 -9 -100 -3 -36 -10 -112 -15 -170 -6 -58 -13 -143 -17
-190 -3 -47 -7 -92 -9 -100 -2 -8 -6 -62 -10 -120 -4 -58 -8 -107 -10 -110 -2
-3 -6 -49 -10 -103 -3 -54 -8 -106 -10 -115 -1 -9 -6 -62 -10 -117 -3 -55 -8
-113 -10 -130 -6 -40 -12 -105 -30 -325 -8 -102 -17 -203 -20 -225 -2 -22 -7
-78 -10 -125 -4 -47 -8 -95 -10 -108 -2 -12 -7 -62 -10 -110 -4 -48 -8 -96
-10 -107 -1 -11 -6 -64 -10 -117 -7 -97 -8 -98 -34 -99 -14 0 -35 -2 -45 -4
-18 -3 -71 -8 -226 -20 -30 -3 -73 -7 -95 -10 -22 -2 -75 -7 -117 -11 l-78 -6
0 39 c-1 36 -1 3111 0 3336 l0 107 1625 0 1625 0 1 -52z m1009 -324 l0 -375
-47 5 c-27 3 -82 8 -123 11 -119 11 -162 14 -215 20 -27 2 -75 7 -105 9 -134
12 -195 18 -197 20 -4 3 -11 76 -18 171 -4 50 -8 101 -10 115 -2 14 -7 61 -10
105 -3 44 -8 96 -10 115 -3 19 -7 68 -10 108 l-6 72 376 0 375 0 0 -376z
m-2949 -379 c8 -2 55 -6 105 -10 49 -3 100 -8 114 -10 14 -2 66 -7 115 -10 50
-4 101 -8 115 -10 14 -2 57 -6 95 -9 70 -6 365 -32 460 -41 28 -2 106 -9 175
-15 69 -6 145 -12 170 -15 25 -2 77 -7 115 -10 39 -4 86 -8 105 -10 19 -2 73
-7 120 -10 47 -3 99 -8 115 -10 17 -2 68 -7 115 -10 47 -4 88 -10 92 -13 3 -4
9 -41 13 -82 3 -41 8 -88 10 -105 2 -16 7 -66 10 -110 3 -44 8 -100 10 -125 3
-25 7 -72 10 -105 8 -99 16 -188 20 -230 4 -38 9 -96 20 -230 3 -33 8 -80 10
-105 3 -25 7 -79 10 -120 3 -41 7 -91 10 -110 2 -19 7 -73 10 -119 4 -47 8
-92 10 -100 2 -9 6 -59 9 -111 4 -52 8 -106 11 -120 2 -14 7 -61 10 -105 3
-44 8 -98 10 -120 2 -22 7 -76 10 -120 3 -44 8 -88 11 -97 4 -13 -1 -18 -15
-19 -12 -1 -24 -2 -28 -3 -5 -1 -55 -6 -113 -10 -58 -4 -118 -9 -133 -11 -15
-2 -60 -6 -100 -10 -40 -3 -92 -8 -117 -10 -100 -9 -168 -15 -225 -20 -33 -2
-87 -7 -120 -10 -132 -13 -152 -15 -215 -20 -36 -3 -90 -7 -120 -10 -30 -3
-84 -7 -120 -10 -36 -3 -81 -7 -100 -10 -19 -2 -71 -7 -115 -10 -44 -3 -100
-8 -125 -10 -50 -6 -105 -11 -225 -21 -44 -3 -91 -8 -105 -9 -14 -1 -61 -6
-105 -9 -44 -4 -100 -9 -125 -11 -25 -3 -76 -8 -115 -11 -38 -3 -86 -7 -105
-9 -19 -2 -73 -6 -120 -10 -47 -4 -93 -9 -104 -11 -17 -3 -18 3 -11 94 3 53 8
111 10 127 1 17 5 64 9 105 4 41 8 95 11 120 4 41 8 91 20 220 2 25 7 77 10
115 3 39 7 90 10 115 2 25 7 74 10 110 3 36 7 92 10 125 3 33 7 80 10 105 4
44 9 95 20 235 6 70 11 126 20 220 3 28 7 77 10 110 19 216 35 408 40 455 5
56 8 90 21 235 3 44 8 87 10 95 1 8 3 30 3 48 l1 34 103 -7 c56 -4 109 -8 118
-10z m2479 -220 c3 -2 52 -6 109 -10 57 -4 111 -8 120 -10 13 -2 192 -18 226
-19 7 -1 11 -551 13 -1623 l2 -1623 -107 0 c-118 0 -3301 0 -3346 0 -28 0 -28
1 -23 48 3 26 8 81 11 122 4 41 8 91 10 110 2 19 7 72 10 118 4 46 8 91 10
100 2 9 4 33 4 53 l1 37 78 7 c42 3 95 8 117 10 22 3 72 7 110 10 39 3 88 7
110 10 38 4 77 7 240 20 39 3 90 8 115 10 25 3 68 7 95 9 120 11 202 18 235
21 19 2 67 6 105 9 62 6 133 12 230 21 17 2 68 6 115 10 47 4 99 8 115 10 17
2 64 6 105 9 41 4 95 9 120 11 25 3 73 7 107 10 156 13 190 16 223 20 19 2 78
7 130 11 52 3 102 7 111 9 9 2 61 6 115 10 55 3 106 8 114 10 8 2 56 7 105 10
50 3 99 8 110 10 11 2 33 4 48 4 27 1 28 2 23 54 -8 83 -16 178 -20 227 -4 42
-12 134 -21 225 -7 69 -15 168 -20 226 -7 91 -15 191 -20 234 -2 22 -7 72 -10
110 -7 81 -14 163 -20 220 -4 38 -7 80 -20 240 -3 39 -8 93 -11 120 -9 97 -13
141 -19 215 -3 41 -8 95 -10 120 -3 25 -7 74 -10 110 -3 36 -8 85 -10 110 -2
25 -7 77 -10 117 -4 40 -8 84 -10 98 l-2 26 96 -6 c53 -4 98 -8 101 -10z m915
-80 c44 -3 91 -7 105 -10 14 -2 59 -7 100 -10 138 -10 182 -14 302 -26 l120
-12 -7 -86 c-3 -47 -8 -99 -10 -116 -2 -16 -7 -68 -10 -115 -4 -47 -8 -98 -10
-115 -2 -16 -9 -88 -15 -160 -6 -71 -12 -150 -15 -175 -2 -25 -7 -79 -10 -120
-3 -41 -10 -118 -15 -170 -5 -52 -12 -126 -15 -165 -3 -38 -8 -92 -10 -120 -3
-27 -12 -129 -20 -225 -23 -268 -25 -292 -30 -340 -2 -25 -7 -74 -10 -110 -3
-36 -8 -85 -10 -110 -3 -25 -12 -126 -20 -225 -8 -99 -17 -200 -20 -225 -5
-54 -13 -143 -20 -225 -10 -125 -16 -191 -20 -225 -2 -19 -7 -71 -10 -115 -3
-44 -10 -123 -15 -175 -5 -52 -12 -126 -15 -165 -10 -132 -16 -200 -20 -235
-2 -19 -7 -71 -10 -115 -4 -44 -8 -96 -10 -115 -2 -19 -7 -73 -11 -120 -4 -47
-8 -92 -10 -100 -1 -8 -3 -28 -3 -44 l-1 -29 -82 8 c-96 8 -138 11 -228 19
-216 19 -302 27 -360 31 -36 3 -83 8 -105 10 -22 2 -71 7 -110 10 -38 3 -88 7
-110 10 -22 2 -76 7 -120 10 -44 4 -96 8 -115 10 -19 3 -118 11 -220 20 -102
8 -205 17 -230 20 -25 2 -72 7 -105 10 -33 3 -82 7 -110 10 -27 2 -106 9 -175
15 -69 6 -149 13 -177 15 -62 6 -132 12 -228 20 -38 3 -90 8 -115 10 -25 3
-76 7 -115 10 -38 3 -86 8 -105 10 -19 3 -71 7 -115 10 -44 3 -96 8 -115 10
-19 3 -71 7 -115 10 -44 3 -96 8 -115 10 -19 2 -69 7 -110 10 -41 3 -91 8
-110 10 -19 2 -66 7 -105 10 -38 3 -92 7 -120 10 -27 2 -86 7 -130 10 -44 4
-91 8 -104 10 -14 3 -68 7 -120 11 -53 4 -103 8 -111 10 -8 1 -26 3 -38 3 -24
1 -24 1 -17 99 4 53 9 105 10 114 2 9 7 63 10 120 4 57 11 108 17 113 6 7 647
10 1885 10 l1876 0 0 1743 0 1743 51 -5 c28 -3 87 -8 131 -11z m-4149 -2727
c-11 -120 -16 -178 -21 -223 -2 -22 -7 -80 -10 -130 -4 -49 -9 -98 -11 -107
-5 -17 -26 -18 -260 -18 l-254 0 0 43 c-3 194 0 460 5 467 3 5 13 8 23 8 17
-1 148 10 212 17 19 3 71 7 115 11 44 3 81 7 82 8 1 0 29 2 64 4 l62 3 -7 -83z"/>
</g>
</svg>
